<svg width="584" height="239" viewBox="0 0 584 239" fill="none" xmlns="http://www.w3.org/2000/svg">
<path d="M159.793 47.2588C159.793 51.5117 158.376 55.492 155.541 59.1997C152.814 62.9074 149.325 66.506 145.072 69.9956C140.928 73.4852 136.402 76.8657 131.495 80.1372C126.588 83.4087 122.008 86.7347 117.755 90.1152C113.611 93.4958 110.121 96.9308 107.286 100.42C104.56 103.91 103.197 107.618 103.197 111.543C103.197 114.815 105.487 117.977 110.067 121.031C114.647 124.084 121.244 127.138 129.859 130.191C138.474 133.244 148.889 136.407 161.102 139.678C173.316 142.841 187.056 146.221 202.323 149.82C209.956 151.892 213.773 155.763 213.773 161.434C213.773 163.615 213.228 165.741 212.137 167.813C211.156 169.885 209.793 171.739 208.048 173.375C206.303 174.901 204.286 176.155 201.996 177.137C199.815 178.118 197.579 178.609 195.289 178.609C189.837 178.609 183.621 177.791 176.642 176.155C169.771 174.52 162.629 172.502 155.213 170.103C147.798 167.704 140.383 165.087 132.967 162.251C125.552 159.307 118.573 156.635 112.03 154.236C105.596 151.837 99.8708 149.82 94.8545 148.184C89.9473 146.548 86.2396 145.73 83.7314 145.73C81.7686 145.73 79.8602 146.657 78.0063 148.511C76.2616 150.256 74.6258 152.71 73.0991 155.872C71.6815 159.035 70.4819 162.797 69.5005 167.159C68.519 171.412 67.8102 176.101 67.374 181.226C66.8288 187.006 64.7568 191.313 61.1582 194.148C57.6686 196.875 52.8159 198.238 46.6001 198.238C40.1662 198.238 36.4585 195.239 35.4771 189.241C33.8413 180.081 31.8239 170.757 29.4248 161.27C27.1348 151.783 24.5721 142.295 21.7368 132.808C19.0106 123.321 16.0117 113.943 12.7402 104.673C9.5778 95.4041 6.25179 86.5166 2.76221 78.0107C1.88981 76.1569 1.23551 74.4666 0.799316 72.9399C0.472168 71.3042 0.308594 69.6685 0.308594 68.0327C0.308594 66.6151 0.744792 65.3065 1.61719 64.1069C2.48958 62.7983 3.68913 61.6533 5.21582 60.6719C6.74251 59.6904 8.4873 58.9271 10.4502 58.3818C12.5221 57.8366 14.6486 57.564 16.8296 57.564C21.3006 57.564 24.8447 58.4909 27.4619 60.3447C30.0791 62.1986 32.7508 64.9793 35.4771 68.687C36.7856 70.4318 38.0397 72.7764 39.2393 75.7207C40.4388 78.556 41.5838 81.6094 42.6743 84.8809C43.7648 88.1523 44.8553 91.4784 45.9458 94.8589C47.0363 98.1304 48.0723 101.129 49.0537 103.855C50.1442 106.473 51.1802 108.654 52.1616 110.398C53.2521 112.034 54.2881 112.852 55.2695 112.852C56.1419 112.852 56.8507 112.47 57.396 111.707C58.0503 110.944 58.8136 109.799 59.686 108.272C65.3566 96.4946 71.5724 85.7533 78.3335 76.0479C85.0946 66.2334 92.0192 57.8911 99.1074 51.021C106.196 44.0418 113.284 38.6439 120.372 34.8271C127.569 31.0104 134.439 29.1021 140.982 29.1021C143.6 29.1021 146.053 29.5928 148.343 30.5742C150.633 31.4466 152.596 32.7007 154.232 34.3364C155.977 35.9722 157.34 37.9351 158.321 40.2251C159.303 42.4061 159.793 44.7507 159.793 47.2588ZM221.625 35.1543C218.462 35.1543 215.463 34.7181 212.628 33.8457C209.902 32.8643 207.503 31.5557 205.431 29.9199C203.468 28.1751 201.887 26.1577 200.687 23.8677C199.487 21.5776 198.888 19.0695 198.888 16.3433C198.888 11.7632 200.687 8.0555 204.286 5.22021C207.993 2.38493 212.901 0.967285 219.007 0.967285C221.843 0.967285 224.569 1.51253 227.186 2.60303C229.803 3.58447 232.093 4.94759 234.056 6.69238C236.128 8.43717 237.764 10.5091 238.963 12.9082C240.163 15.1982 240.763 17.5973 240.763 20.1055C240.763 24.7946 239.018 28.5023 235.528 31.2285C232.148 33.8457 227.513 35.1543 221.625 35.1543ZM199.215 85.0444C199.215 81.2277 200.851 78.1198 204.122 75.7207C207.503 73.2126 211.919 71.9585 217.372 71.9585C227.186 71.9585 232.42 75.339 233.075 82.1001C233.511 86.7892 233.947 92.0781 234.383 97.9668C234.929 103.855 235.419 110.126 235.855 116.778C236.401 123.321 236.837 130.136 237.164 137.225C237.6 144.204 237.982 151.128 238.309 157.999C238.636 164.76 238.909 171.303 239.127 177.627C239.345 183.952 239.454 189.732 239.454 194.966C239.454 200.419 237.491 204.508 233.565 207.234C229.749 209.961 224.133 211.324 216.717 211.324C213.337 211.324 210.665 210.506 208.702 208.87C206.848 207.343 205.921 205.053 205.921 202C205.921 186.951 205.54 172.884 204.776 159.798C204.122 146.603 203.359 134.88 202.486 124.629C201.723 114.379 200.96 105.873 200.196 99.1118C199.542 92.2417 199.215 87.5526 199.215 85.0444ZM379.146 82.4272C379.583 82.6453 380.237 82.7544 381.109 82.7544C383.508 82.7544 384.708 81.1732 384.708 78.0107V27.1392C384.708 20.7052 386.126 16.1252 388.961 13.3989C391.905 10.6727 396.758 9.30957 403.519 9.30957C410.389 9.30957 415.242 10.7272 418.077 13.5625C420.912 16.3978 422.33 21.2505 422.33 28.1206C422.33 30.7378 422.167 34.609 421.839 39.7344C421.512 44.7507 421.131 50.4757 420.694 56.9097C420.367 63.3436 420.04 70.2682 419.713 77.6836C419.386 84.9899 419.222 92.2417 419.222 99.439C419.222 110.562 419.986 120.158 421.512 128.228C423.039 136.298 425.22 143.004 428.055 148.348C430.89 153.582 434.271 157.508 438.197 160.125C442.123 162.633 446.539 163.887 451.446 163.887C454.173 163.887 456.626 163.56 458.807 162.906C461.097 162.142 463.769 161.761 466.822 161.761C469.003 161.761 470.803 162.906 472.22 165.196C473.747 167.377 474.51 170.049 474.51 173.211C474.51 176.046 473.638 178.718 471.893 181.226C470.257 183.734 467.967 185.915 465.023 187.769C462.188 189.623 458.862 191.095 455.045 192.186C451.228 193.167 447.248 193.658 443.104 193.658C434.162 193.658 425.983 190.931 418.568 185.479C411.153 179.917 405.591 171.466 401.883 160.125C401.556 158.38 401.011 157.508 400.248 157.508C399.375 157.508 398.666 158.38 398.121 160.125C395.177 168.086 391.306 175.283 386.507 181.717C381.818 188.042 376.311 193.494 369.986 198.074C363.771 202.545 356.9 205.98 349.376 208.379C341.961 210.778 334.109 211.978 325.821 211.978C317.097 211.978 309.082 210.506 301.776 207.562C294.579 204.726 288.363 200.746 283.128 195.621C277.894 190.386 273.805 184.279 270.86 177.3C267.916 170.212 266.444 162.579 266.444 154.4C266.444 143.931 268.625 134.062 272.987 124.793C277.349 115.524 283.237 107.454 290.653 100.584C298.177 93.6048 306.901 88.0978 316.825 84.063C326.748 80.0282 337.326 78.0107 348.558 78.0107C353.138 78.0107 357.991 78.3924 363.116 79.1558C368.242 79.8101 373.585 80.9006 379.146 82.4272ZM332.201 182.535C338.417 182.535 343.924 181.172 348.722 178.445C353.629 175.719 357.936 172.284 361.644 168.14C365.461 163.887 368.678 159.253 371.295 154.236C373.912 149.111 376.039 144.149 377.674 139.351C379.31 134.553 380.51 130.245 381.273 126.429C382.036 122.612 382.418 119.886 382.418 118.25C382.418 117.05 382.091 116.014 381.437 115.142C380.782 114.161 379.801 113.397 378.492 112.852C375.548 112.089 372.494 111.434 369.332 110.889C366.17 110.235 363.062 109.69 360.008 109.253C356.955 108.817 354.011 108.49 351.175 108.272C348.449 108.054 345.941 107.945 343.651 107.945C337.108 107.945 331.165 108.926 325.821 110.889C320.478 112.852 315.898 115.633 312.081 119.231C308.373 122.83 305.484 127.138 303.412 132.154C301.34 137.061 300.304 142.459 300.304 148.348C300.304 153.582 301.067 158.326 302.594 162.579C304.229 166.722 306.41 170.267 309.137 173.211C311.972 176.155 315.353 178.445 319.278 180.081C323.204 181.717 327.512 182.535 332.201 182.535ZM506.734 60.0176C514.041 60.0176 521.565 60.999 529.308 62.9619C537.05 64.8158 544.138 67.2694 550.572 70.3228C557.006 73.2671 562.295 76.5931 566.439 80.3008C570.583 84.0085 572.655 87.6071 572.655 91.0967C572.655 92.8415 571.891 94.8044 570.365 96.9854C568.838 99.0573 566.984 101.075 564.803 103.038C562.622 104.891 560.223 106.473 557.606 107.781C555.098 108.981 552.862 109.581 550.899 109.581C548.282 109.581 545.338 108.49 542.066 106.309C538.904 104.128 535.36 101.729 531.434 99.1118C527.617 96.3856 523.419 93.932 518.839 91.751C514.259 89.57 509.297 88.4795 503.954 88.4795C500.464 88.4795 497.574 89.3519 495.284 91.0967C493.103 92.7324 492.013 95.077 492.013 98.1304C492.013 100.857 493.321 103.637 495.938 106.473C498.556 109.199 501.991 112.034 506.244 114.979C510.606 117.923 515.513 121.031 520.965 124.302C526.418 127.574 531.979 131.063 537.65 134.771C543.43 138.479 549.046 142.514 554.498 146.875C559.951 151.237 564.803 155.981 569.056 161.106C573.418 166.232 576.908 171.848 579.525 177.955C582.142 183.952 583.451 190.495 583.451 197.583C583.451 203.69 582.36 209.252 580.179 214.268C577.998 219.284 574.89 223.592 570.855 227.19C566.821 230.789 562.022 233.57 556.461 235.533C550.899 237.496 544.793 238.477 538.141 238.477C529.744 238.477 522.001 237.168 514.913 234.551C507.825 232.043 501.718 228.554 496.593 224.083C491.467 219.611 487.433 214.268 484.488 208.052C481.653 201.836 480.235 195.021 480.235 187.605C480.235 178.009 481.926 171.03 485.306 166.668C488.796 162.306 494.248 160.125 501.664 160.125C506.244 160.125 509.897 160.997 512.623 162.742C515.349 164.487 516.712 166.613 516.712 169.122C516.712 170.43 516.494 171.793 516.058 173.211C515.622 174.52 515.131 175.937 514.586 177.464C514.15 178.882 513.714 180.408 513.277 182.044C512.95 183.68 512.787 185.315 512.787 186.951C512.787 189.786 513.441 192.513 514.75 195.13C516.058 197.747 517.803 200.037 519.984 202C522.274 204.072 524.891 205.708 527.835 206.907C530.78 208.107 533.888 208.707 537.159 208.707C545.883 208.707 550.245 205.108 550.245 197.911C550.245 192.24 548.01 186.897 543.539 181.88C539.068 176.755 533.451 171.793 526.69 166.995C519.929 162.088 512.623 157.181 504.771 152.273C497.029 147.366 489.777 142.241 483.016 136.897C476.255 131.554 470.639 125.883 466.168 119.886C461.697 113.779 459.461 107.181 459.461 100.093C459.461 94.2046 460.661 88.8066 463.06 83.8994C465.568 78.9922 468.949 74.7938 473.202 71.3042C477.455 67.7056 482.416 64.9248 488.087 62.9619C493.867 60.999 500.082 60.0176 506.734 60.0176Z" fill="#332623"/>
</svg>
